HIERARCHY
ROOT Hips
{
	OFFSET -0.001795 -0.223333 0.028219
	CHANNELS 6 Xposition Yposition Zposition Zrotation Yrotation Xrotation 
	JOINT LeftUpLeg
	{
		OFFSET 0.069520 -0.091406 -0.006815
		CHANNELS 3 Zrotation Yrotation Xrotation
		JOINT LeftLeg
		{
			OFFSET 0.034277 -0.375199 -0.004496
			CHANNELS 3 Zrotation Yrotation Xrotation
			JOINT LeftFoot
			{
				OFFSET -0.013596 -0.397961 -0.043693
				CHANNELS 3 Zrotation Yrotation Xrotation
				JOINT LeftToe
				{
					OFFSET 0.026358 -0.055791 0.119288
					CHANNELS 3 Zrotation Yrotation Xrotation
					End Site
					{
						OFFSET 0.000000 0.000000 0.000000
					}
				}
			}
		}
	}
	JOINT RightUpLeg
	{
		OFFSET -0.067670 -0.090522 -0.004320
		CHANNELS 3 Zrotation Yrotation Xrotation
		JOINT RightLeg
		{
			OFFSET -0.038290 -0.382569 -0.008850
			CHANNELS 3 Zrotation Yrotation Xrotation
			JOINT RightFoot
			{
				OFFSET 0.015774 -0.398415 -0.042312
				CHANNELS 3 Zrotation Yrotation Xrotation
				JOINT RightToe
				{
					OFFSET -0.025372 -0.048144 0.123348
					CHANNELS 3 Zrotation Yrotation Xrotation
					End Site
					{
						OFFSET 0.000000 0.000000 0.000000
					}
				}
			}
		}
	}
	JOINT Spine
	{
		OFFSET -0.002533 0.108963 -0.026696
		CHANNELS 3 Zrotation Yrotation Xrotation
		JOINT Spine1
		{
			OFFSET 0.005487 0.135180 0.001092
			CHANNELS 3 Zrotation Yrotation Xrotation
			JOINT Spine2
			{
				OFFSET 0.001457 0.052922 0.025425
				CHANNELS 3 Zrotation Yrotation Xrotation
				JOINT Neck
				{
					OFFSET -0.002778 0.213870 -0.042857
					CHANNELS 3 Zrotation Yrotation Xrotation
					JOINT Head
					{
						OFFSET 0.005152 0.064970 0.051349
						CHANNELS 3 Zrotation Yrotation Xrotation
						End Site
						{
							OFFSET 0.000000 0.000000 0.000000
						}
					}
				}
				JOINT LeftShoulder
				{
					OFFSET 0.078845 0.121749 -0.034090
					CHANNELS 3 Zrotation Yrotation Xrotation
					JOINT LeftArm
					{
						OFFSET 0.090977 0.030469 -0.008868
						CHANNELS 3 Zrotation Yrotation Xrotation
						JOINT LeftForeArm
						{
							OFFSET 0.259612 -0.012772 -0.027456
							CHANNELS 3 Zrotation Yrotation Xrotation
							JOINT LeftHand
							{
								OFFSET 0.249234 0.008986 -0.001171
								CHANNELS 3 Zrotation Yrotation Xrotation
								End Site
								{
									OFFSET 0.000000 0.000000 0.000000
								}
							}
						}
					}
				}
				JOINT RightShoulder
				{
					OFFSET -0.081759 0.118833 -0.038615
					CHANNELS 3 Zrotation Yrotation Xrotation
					JOINT RightArm
					{
						OFFSET -0.096012 0.032551 -0.009143
						CHANNELS 3 Zrotation Yrotation Xrotation
						JOINT RightForeArm
						{
							OFFSET -0.253742 -0.013329 -0.021401
							CHANNELS 3 Zrotation Yrotation Xrotation
							JOINT RightHand
							{
								OFFSET -0.255298 0.007772 -0.005559
								CHANNELS 3 Zrotation Yrotation Xrotation
								End Site
								{
									OFFSET 0.000000 0.000000 0.000000
								}
							}
						}
					}
				}
			}
		}
	}
}
MOTION
Frames: 6
Frame Time: 0.050000
0.000000 0.953962 0.000000 -0.177081 0.133329 -0.652424 0.671435 0.145224 1.785236 0.229157 -0.133490 2.972269 -2.230760 -2.677950 3.883538 0.000000 0.000000 0.000000 -0.289203 -0.030588 0.375630 -0.721761 0.272630 4.242761 1.683803 2.493247 3.090244 0.000000 0.000000 0.000000 1.385690 -0.014854 0.130582 -1.362180 0.667420 -0.883850 -1.089088 0.534911 6.338187 2.801126 -0.650259 -14.569676 0.000000 0.000000 0.000000 -22.979606 -7.117612 1.689832 -49.550865 -5.238372 -3.901804 -12.380182 -23.346299 3.412048 0.000000 0.000000 0.000000 22.400726 6.200531 1.771250 53.883733 5.628137 -3.002783 10.730750 24.497949 3.003702 0.000000 0.000000 0.000000 
0.000132 0.953463 -0.000097 -0.123947 0.083196 -0.373859 0.813164 0.135592 1.719896 0.053168 -0.082524 2.205789 -2.381476 -2.553945 4.722079 0.000000 0.000000 0.000000 -0.523770 -0.002976 0.151510 -0.239942 0.192632 3.994790 1.926120 2.980413 3.251001 0.000000 0.000000 0.000000 1.032078 -0.003922 -0.061267 -1.520643 0.735063 -0.340004 -0.800699 0.136233 5.567517 3.275582 -0.960287 -14.806619 0.000000 0.000000 0.000000 -22.857487 -7.214986 1.873615 -50.027153 -4.744798 -4.104008 -10.711026 -22.773233 3.000372 0.000000 0.000000 0.000000 22.663087 6.852690 1.959500 53.171403 5.839259 -2.757102 10.283347 23.220962 2.705921 0.000000 0.000000 0.000000 
0.000098 0.952356 -0.000159 -0.311490 0.456343 -0.361712 1.115936 0.126948 1.730649 -0.121399 -0.062387 2.260679 -2.204499 -2.009753 5.070831 0.000000 0.000000 0.000000 -0.185290 -0.002495 0.064904 0.081285 0.148162 4.053533 1.493475 1.448076 4.229693 0.000000 0.000000 0.000000 0.985029 -0.014583 0.161984 -1.304044 0.648696 -1.434364 -0.740624 0.006737 6.296784 3.363870 -1.134087 -13.792275 0.000000 0.000000 0.000000 -23.182868 -7.149413 1.837041 -50.060706 -4.713053 -4.182238 -9.741911 -23.170678 2.863684 0.000000 0.000000 0.000000 22.593455 6.651744 1.891104 53.893848 5.360386 -3.079480 9.440507 23.380720 2.579323 0.000000 0.000000 0.000000 
0.000112 0.952426 -0.000116 -0.147605 1.859689 -0.584549 0.709658 0.162261 2.067878 0.049045 -0.091174 2.398692 -2.643396 -2.867831 4.872818 0.000000 0.000000 0.000000 -0.444240 -0.058161 0.675166 0.344910 0.090942 3.649993 1.348708 1.343352 3.945566 0.000000 0.000000 0.000000 0.311088 -0.008365 0.156432 -1.229529 0.594415 -0.120547 -0.245836 -1.003602 5.158727 2.612372 -0.718858 -13.359543 0.000000 0.000000 0.000000 -23.461701 -6.973466 1.801108 -49.756924 -4.713434 -4.089120 -9.595691 -23.238892 2.846584 0.000000 0.000000 0.000000 23.375793 7.462424 2.181227 52.732160 5.449293 -2.844919 8.878061 23.298239 2.430381 0.000000 0.000000 0.000000 
0.000124 0.952176 -0.000054 -0.291829 2.217391 -0.757578 0.843790 0.170788 2.239395 -0.298770 -0.057068 2.682919 -2.381901 -2.314629 4.910283 0.000000 0.000000 0.000000 -0.390262 -0.069907 0.773446 0.794910 0.026157 3.687583 1.041998 0.380667 4.506136 0.000000 0.000000 0.000000 0.406173 -0.021903 0.458249 -1.126071 0.556185 -0.587624 -0.285775 -1.001454 6.004479 2.379664 -0.492184 -14.099338 0.000000 0.000000 0.000000 -23.751977 -7.269300 1.933480 -49.497711 -4.837299 -4.081137 -9.432078 -23.254484 2.814148 0.000000 0.000000 0.000000 23.549109 7.197056 2.125319 53.090154 5.526025 -2.936565 7.778768 23.465651 2.261302 0.000000 0.000000 0.000000 
0.000125 0.952139 0.000092 -0.175928 2.465905 -0.834663 0.533000 0.181895 2.255277 -0.187811 -0.084812 3.052297 -2.172073 -1.931455 4.833257 0.000000 0.000000 0.000000 -0.333631 -0.103431 1.092253 0.921416 0.003607 3.579119 1.077032 0.495720 4.466872 0.000000 0.000000 0.000000 0.229740 -0.021128 0.480476 -1.114082 0.544960 -0.326292 -0.182320 -1.070497 5.629354 2.647471 -0.691965 -13.727018 0.000000 0.000000 0.000000 -24.044940 -7.322573 1.929998 -49.353649 -4.677603 -4.096965 -9.010746 -23.098538 2.703471 0.000000 0.000000 0.000000 23.903181 7.443136 2.261242 52.450703 5.458338 -2.901939 8.007616 23.354038 2.287286 0.000000 0.000000 0.000000 
